<svg xmlns="http://www.w3.org/2000/svg" viewBox="6 6 88 88"><defs><radialGradient id="glow" cx="50%" cy="50%" r="50%"><stop offset="0" stop-color="#ffe3a0" stop-opacity=".95"/><stop offset=".35" stop-color="#f4b95a" stop-opacity=".55"/><stop offset="1" stop-color="#f4b95a" stop-opacity="0"/></radialGradient><radialGradient id="glowR" cx="50%" cy="50%" r="50%"><stop offset="0" stop-color="#ffb08a" stop-opacity=".95"/><stop offset=".35" stop-color="#ff6a3d" stop-opacity=".55"/><stop offset="1" stop-color="#ff6a3d" stop-opacity="0"/></radialGradient><radialGradient id="tail" cx="40%" cy="35%" r="70%"><stop offset="0" stop-color="#fff1c4"/><stop offset=".5" stop-color="#ffcf6e"/><stop offset="1" stop-color="#e99a2e"/></radialGradient><radialGradient id="tailR" cx="40%" cy="35%" r="70%"><stop offset="0" stop-color="#ffe0c8"/><stop offset=".5" stop-color="#ff8a55"/><stop offset="1" stop-color="#d9452a"/></radialGradient><linearGradient id="body" x1="0" y1="0" x2="1" y2="1"><stop offset="0" stop-color="#d3deee"/><stop offset=".55" stop-color="#a7b8d2"/><stop offset="1" stop-color="#7c90b2"/></linearGradient><linearGradient id="leaf" x1="0" y1="0" x2="1" y2="1"><stop offset="0" stop-color="#8fd67a"/><stop offset="1" stop-color="#2f8a4a"/></linearGradient><linearGradient id="mango" x1="0" y1="0" x2="1" y2="1"><stop offset="0" stop-color="#ffd84d"/><stop offset="1" stop-color="#f08a24"/></linearGradient><linearGradient id="pot" x1="0" y1="0" x2="1" y2="1"><stop offset="0" stop-color="#e2915a"/><stop offset="1" stop-color="#9c4f28"/></linearGradient><linearGradient id="hill" x1="0" y1="0" x2="0" y2="1"><stop offset="0" stop-color="#6fbf73"/><stop offset="1" stop-color="#2e6b3f"/></linearGradient><linearGradient id="shell" x1="0" y1="0" x2="1" y2="1"><stop offset="0" stop-color="#f3c98b"/><stop offset="1" stop-color="#b9743c"/></linearGradient></defs><g transform="translate(62 50) scale(1.05)"><circle cx="13" cy="17" r="21" fill="url(#glow)"/><ellipse cx="10" cy="-17" rx="9" ry="15" transform="rotate(35 10 -17)" fill="#fff" fill-opacity=".38" stroke="#fff" stroke-opacity=".7"/><ellipse cx="16" cy="-9" rx="7" ry="12" transform="rotate(60 16 -9)" fill="#fff" fill-opacity=".3" stroke="#fff" stroke-opacity=".7"/><path d="M-6 21 L-7 29 M5 21 L6 29" fill="none" stroke="#7c90b2" stroke-width="2.6" stroke-linecap="round"/><ellipse cx="12" cy="15" rx="12" ry="10.5" fill="url(#tail)"/><ellipse cx="0" cy="0" rx="17" ry="23" fill="url(#body)"/><ellipse cx="-6" cy="-12" rx="6" ry="4" fill="#fff" opacity=".35"/><path d="M-3 -22 Q-7 -32 -11 -33 M3 -22 Q7 -32 11 -33" fill="none" stroke="#7c90b2" stroke-width="1.8" stroke-linecap="round"/><circle cx="-11" cy="-33" r="2" fill="#7c90b2"/><circle cx="11" cy="-33" r="2" fill="#7c90b2"/><ellipse cx="-7" cy="-8" rx="5.6" ry="6.2" fill="#fff"/><circle cx="-6.4" cy="-7.2" r="3.1" fill="#2b2233"/><circle cx="-5.4" cy="-8.6" r="1" fill="#fff"/><ellipse cx="7" cy="-8" rx="5.6" ry="6.2" fill="#fff"/><circle cx="7.6" cy="-7.2" r="3.1" fill="#2b2233"/><circle cx="8.6" cy="-8.6" r="1" fill="#fff"/><path d="M-11 -17 L-4 -19.5" fill="none" stroke="#2b2233" stroke-width="2" stroke-linecap="round"/><path d="M11 -17 L4 -19.5" fill="none" stroke="#2b2233" stroke-width="2" stroke-linecap="round"/><ellipse cx="0" cy="3" rx="2.6" ry="3.2" fill="#2b2233"/></g><path d="M50 14 C74 22 86 50 76 74 C70 88 50 94 36 92 C22 80 18 54 28 36 C34 24 42 17 50 14 Z" fill="url(#leaf)" transform="translate(-26 10) scale(.95)"/><path d="M24 26 C28 46 28 68 22 94" fill="none" stroke="#2a6e3b" stroke-width="1.8" stroke-linecap="round"/><path d="M25 42 L37 36 M26 58 L39 54 M25 74 L36 72" fill="none" stroke="#2a6e3b" stroke-width="1.4" stroke-linecap="round"/><path d="M84 26 C82 30 81 32 83 34 C85 35 87 33 86 30 Z" fill="#9fd8ff"/></svg>