<svg xmlns="http://www.w3.org/2000/svg" viewBox="6 6 88 88"><defs><radialGradient id="glow" cx="50%" cy="50%" r="50%"><stop offset="0" stop-color="#ffe3a0" stop-opacity=".95"/><stop offset=".35" stop-color="#f4b95a" stop-opacity=".55"/><stop offset="1" stop-color="#f4b95a" stop-opacity="0"/></radialGradient><radialGradient id="glowR" cx="50%" cy="50%" r="50%"><stop offset="0" stop-color="#ffb08a" stop-opacity=".95"/><stop offset=".35" stop-color="#ff6a3d" stop-opacity=".55"/><stop offset="1" stop-color="#ff6a3d" stop-opacity="0"/></radialGradient><radialGradient id="tail" cx="40%" cy="35%" r="70%"><stop offset="0" stop-color="#fff1c4"/><stop offset=".5" stop-color="#ffcf6e"/><stop offset="1" stop-color="#e99a2e"/></radialGradient><radialGradient id="tailR" cx="40%" cy="35%" r="70%"><stop offset="0" stop-color="#ffe0c8"/><stop offset=".5" stop-color="#ff8a55"/><stop offset="1" stop-color="#d9452a"/></radialGradient><linearGradient id="body" x1="0" y1="0" x2="1" y2="1"><stop offset="0" stop-color="#d3deee"/><stop offset=".55" stop-color="#a7b8d2"/><stop offset="1" stop-color="#7c90b2"/></linearGradient><linearGradient id="leaf" x1="0" y1="0" x2="1" y2="1"><stop offset="0" stop-color="#8fd67a"/><stop offset="1" stop-color="#2f8a4a"/></linearGradient><linearGradient id="mango" x1="0" y1="0" x2="1" y2="1"><stop offset="0" stop-color="#ffd84d"/><stop offset="1" stop-color="#f08a24"/></linearGradient><linearGradient id="pot" x1="0" y1="0" x2="1" y2="1"><stop offset="0" stop-color="#e2915a"/><stop offset="1" stop-color="#9c4f28"/></linearGradient><linearGradient id="hill" x1="0" y1="0" x2="0" y2="1"><stop offset="0" stop-color="#6fbf73"/><stop offset="1" stop-color="#2e6b3f"/></linearGradient><linearGradient id="shell" x1="0" y1="0" x2="1" y2="1"><stop offset="0" stop-color="#f3c98b"/><stop offset="1" stop-color="#b9743c"/></linearGradient></defs><g transform="translate(32 34) scale(0.85)"><circle cx="13" cy="17" r="34" fill="url(#glow)"/><ellipse cx="10" cy="-17" rx="9" ry="15" transform="rotate(35 10 -17)" fill="#fff" fill-opacity=".38" stroke="#fff" stroke-opacity=".7"/><ellipse cx="16" cy="-9" rx="7" ry="12" transform="rotate(60 16 -9)" fill="#fff" fill-opacity=".3" stroke="#fff" stroke-opacity=".7"/><path d="M-6 21 L-7 29 M5 21 L6 29" fill="none" stroke="#7c90b2" stroke-width="2.6" stroke-linecap="round"/><ellipse cx="12" cy="15" rx="12" ry="10.5" fill="url(#tail)"/><ellipse cx="0" cy="0" rx="17" ry="23" fill="url(#body)"/><ellipse cx="-6" cy="-12" rx="6" ry="4" fill="#fff" opacity=".35"/><path d="M-3 -22 Q-7 -32 -11 -33 M3 -22 Q7 -32 11 -33" fill="none" stroke="#7c90b2" stroke-width="1.8" stroke-linecap="round"/><circle cx="-11" cy="-33" r="2" fill="#7c90b2"/><circle cx="11" cy="-33" r="2" fill="#7c90b2"/><ellipse cx="-7" cy="-8" rx="5.2" ry="5" fill="#fff"/><circle cx="-6.4" cy="-7.2" r="2.8" fill="#2b2233"/><circle cx="-5.4" cy="-8.6" r="1" fill="#fff"/><path d="M-12.4 -9.5 Q-7 -14.5 -1.5999999999999996 -9.5 L-1.5999999999999996 -13.5 L-12.4 -13.5 Z" fill="#a9bad3"/><path d="M-12.2 -9.6 Q-7 -11.8 -1.7999999999999998 -9.6" fill="none" stroke="#6d7f9f" stroke-width="1.2" stroke-linecap="round"/><ellipse cx="7" cy="-8" rx="5.2" ry="5" fill="#fff"/><circle cx="7.6" cy="-7.2" r="2.8" fill="#2b2233"/><circle cx="8.6" cy="-8.6" r="1" fill="#fff"/><path d="M1.5999999999999996 -9.5 Q7 -14.5 12.4 -9.5 L12.4 -13.5 L1.5999999999999996 -13.5 Z" fill="#a9bad3"/><path d="M1.7999999999999998 -9.6 Q7 -11.8 12.2 -9.6" fill="none" stroke="#6d7f9f" stroke-width="1.2" stroke-linecap="round"/><path d="M-4.5 .5 Q0 4.5 4.5 .5" fill="none" stroke="#2b2233" stroke-width="2" stroke-linecap="round"/><ellipse cx="-12" cy="-1" rx="3.4" ry="2.1" fill="#ff9aa8" opacity=".6"/><ellipse cx="12" cy="-1" rx="3.4" ry="2.1" fill="#ff9aa8" opacity=".6"/></g><g transform="translate(62 76)"><path d="M-26 12 C-20 4 -12 6 -6 8 L22 8 C27 8 29 12 26 14 L-24 14 C-27 14 -28 13 -26 12 Z" fill="#c9d3a8"/><path d="M-24 10 C-26 2 -24 -6 -20 -8" fill="none" stroke="#c9d3a8" stroke-width="6" stroke-linecap="round"/><path d="M-21 -7 L-25 -15 M-18 -7 L-17 -16" fill="none" stroke="#9aa67a" stroke-width="1.6" stroke-linecap="round"/><circle cx="-25" cy="-15" r="1.8" fill="#2b2233"/><circle cx="-17" cy="-16" r="1.8" fill="#2b2233"/><path d="M-23 0 Q-21 2 -19 0" fill="none" stroke="#2b2233" stroke-width="1.3" stroke-linecap="round"/><circle cx="4" cy="-4" r="15" fill="url(#shell)"/><path d="M4 -13 a9 9 0 1 1 -8.5 12 a6 6 0 1 1 8 -7 a3 3 0 1 1 -3.5 3" fill="none" stroke="#8a4f22" stroke-width="1.8" stroke-linecap="round"/></g><path d="M50 30 C43 18 27 23 32 36 C36 45 50 52 50 52 C50 52 64 45 68 36 C73 23 57 18 50 30 Z" transform="translate(49.5 17) scale(.45)" fill="#ff9aa8" opacity=".9"/></svg>